<?xml version="1.0" encoding="UTF-8"?>
<svg width="101px" height="101px" viewBox="0 0 101 101" version="1.1" xmlns="http://www.w3.org/2000/svg">
  <!-- Generator: Sketch 63.1 (92452) - https://sketch.com -->
  <title>Shape</title>
  <desc>Created with Sketch.</desc>
  <g id="hatenalog" stroke="none" stroke-width="1" fill="none" fill-rule="evenodd">
    <g id="hatenablog-logo" transform="translate(-2.000000, -2.000000)" fill="#333333" fill-rule="nonzero">
      <g transform="translate(2.000000, 2.000000)" id="Shape">
        <path
          d="M50.4994894,101 C22.6539527,101 0,78.3475265 0,50.5 C0,22.6550263 22.6539527,0 50.4994894,0 C78.3491108,0 101,22.6550263 101,50.5 C101,78.3475265 78.3491108,101 50.4994894,101 Z M50.4994894,6.42297465 C26.1953401,6.42297465 6.42106221,26.1937892 6.42106221,50.5 C6.42106221,74.8057002 26.1953401,94.5785571 50.4994894,94.5785571 C74.808234,94.5785571 94.5820013,74.8057002 94.5820013,50.5 C94.5820013,26.1937892 74.808234,6.42297465 50.4994894,6.42297465 Z M56.381889,25.5637455 C53.9147634,20.5678149 52.4080399,15.7097382 51.6472747,12.8786258 L51.6472747,48.6466297 C52.8966656,49.1148227 53.7901817,50.3095573 53.7901817,51.7207736 C53.7901817,53.5378934 52.3161354,55.0098677 50.5005106,55.0098677 C48.6828435,55.0098677 47.2108395,53.5368723 47.2108395,51.7207736 C47.2108395,50.242162 48.1937072,49.0060712 49.5380661,48.590467 L49.5380661,12.8408436 C48.7798538,15.6648081 47.2721092,20.5463709 44.7932401,25.5637455 C40.927634,33.3826194 36.1087739,40.2799139 36.1087739,40.2799139 L39.1906387,82.4520013 C39.1906387,82.4520013 42.1193293,85.720162 50.5816929,85.7247571 L50.5934363,85.7247571 C59.0552893,85.720162 61.9855116,82.4520013 61.9855116,82.4520013 L65.0668658,40.2799139 C65.0653341,40.2799139 60.246474,33.3831299 56.381889,25.5637455 L56.381889,25.5637455 Z"></path>
      </g>
    </g>
  </g>
</svg>
